<svg width="1280" height="720" xmlns="http://www.w3.org/2000/svg" xmlns:xlink="http://www.w3.org/1999/xlink" overflow="hidden"><g><rect x="0" y="0" width="1280" height="720" fill="#FFFFFF"/><rect x="487" y="19" width="306" height="205" stroke="#042433" stroke-width="2" stroke-miterlimit="8" fill="#5E5E5F" fill-opacity="0.501961"/><rect x="867" y="258" width="306" height="204" stroke="#80350E" stroke-width="2" stroke-miterlimit="8" fill="#C6A49A"/><rect x="106" y="258" width="306" height="204" stroke="#7030A0" stroke-width="2" stroke-miterlimit="8" fill="#D1B6E1"/><rect x="259" y="496" width="306" height="205" stroke="#7030A0" stroke-width="2" stroke-miterlimit="8" fill="#D1B6E1"/><rect x="714" y="496" width="306" height="205" stroke="#80350E" stroke-width="2" stroke-miterlimit="8" fill="#C6A49A"/><rect x="487" y="258" width="306" height="204" stroke="#3B7D23" stroke-width="2" stroke-miterlimit="8" fill="#A5D296"/><rect x="113" y="265" width="291" height="189" stroke="#FFFFFF" stroke-width="2" stroke-miterlimit="8" fill="#FFFFFF"/><rect x="135" y="291" width="165" height="129" stroke="#7030A0" stroke-width="2" stroke-miterlimit="8" fill="#D1B6E1"/><path d="M135 420 258.78 496.045" stroke="#7030A0" stroke-width="2" stroke-miterlimit="8" fill="none" fill-rule="evenodd"/><path d="M301 420 565.685 496.045" stroke="#7030A0" stroke-width="2" stroke-miterlimit="8" fill="none" fill-rule="evenodd"/><rect x="494" y="265" width="291" height="189" stroke="#FFFFFF" stroke-width="2" stroke-miterlimit="8" fill="#FFFFFF"/><rect x="874" y="266" width="291" height="189" stroke="#FFFFFF" stroke-width="2" stroke-miterlimit="8" fill="#FFFFFF"/><rect x="1020" y="286" width="74" height="149" stroke="#80350E" stroke-width="2" stroke-miterlimit="8" fill="#C6A49A"/><path d="M0 0 306.142 61.7962" stroke="#80350E" stroke-width="2" stroke-miterlimit="8" fill="none" fill-rule="evenodd" transform="matrix(1 0 0 -1 713 496.796)"/><path d="M0 0 74.7181 61.7962" stroke="#80350E" stroke-width="2" stroke-miterlimit="8" fill="none" fill-rule="evenodd" transform="matrix(-1 0 0 1 1094.72 435)"/><rect x="721" y="504" width="291" height="189" stroke="#FFFFFF" stroke-width="2" stroke-miterlimit="8" fill="#FFFFFF"/><rect x="267" y="504" width="291" height="189" stroke="#FFFFFF" stroke-width="2" stroke-miterlimit="8" fill="#FFFFFF"/><rect x="494" y="27" width="291" height="189" stroke="#FFFFFF" stroke-width="2" stroke-miterlimit="8" fill="#FFFFFF"/><rect x="510" y="57" width="89" height="129" stroke="#7030A0" stroke-width="2" stroke-miterlimit="8" fill="#D1B6E1"/><rect x="642" y="133" width="72" height="76" stroke="#3B7D23" stroke-width="2" stroke-miterlimit="8" fill="#A5D296"/><rect x="713" y="36" width="64" height="42" stroke="#80350E" stroke-width="2" stroke-miterlimit="8" fill="#C6A49A"/><path d="M0 0 403.511 71.9824" stroke="#7030A0" stroke-width="2" stroke-miterlimit="8" fill="none" fill-rule="evenodd" transform="matrix(-1 0 0 1 509.512 186)"/><path d="M0 0 186.541 71.6677" stroke="#7030A0" stroke-width="2" stroke-miterlimit="8" fill="none" fill-rule="evenodd" transform="matrix(-1 0 0 1 598.541 186)"/><path d="M0 0 154.782 48.6381" stroke="#3B7D23" stroke-width="2" stroke-miterlimit="8" fill="none" fill-rule="evenodd" transform="matrix(1 0 0 -1 487 257.638)"/><path d="M792.618 257.638 713 209" stroke="#3B7D23" stroke-width="2" stroke-miterlimit="8" fill="none" fill-rule="evenodd"/><path d="M1172.72 257.234 777 78" stroke="#80350E" stroke-width="2" stroke-miterlimit="8" fill="none" fill-rule="evenodd"/><path d="M866.071 257.234 713 78" stroke="#80350E" stroke-width="2" stroke-miterlimit="8" fill="none" fill-rule="evenodd"/><text font-family="NanumSquare ExtraBold,NanumSquare ExtraBold_MSFontService,sans-serif" font-weight="800" font-size="16" transform="translate(503.83 47)">Main</text><text font-family="NanumSquare ExtraBold,NanumSquare ExtraBold_MSFontService,sans-serif" font-weight="800" font-size="16" transform="translate(122.712 285)">A</text><text font-family="NanumSquare ExtraBold,NanumSquare ExtraBold_MSFontService,sans-serif" font-weight="800" font-size="16" transform="translate(503.571 284)">B</text><text font-family="NanumSquare ExtraBold,NanumSquare ExtraBold_MSFontService,sans-serif" font-weight="800" font-size="16" transform="translate(883.732 285)">C</text><text font-family="NanumSquare ExtraBold,NanumSquare ExtraBold_MSFontService,sans-serif" font-weight="800" font-size="16" transform="translate(730.593 524)">E</text><text font-family="NanumSquare ExtraBold,NanumSquare ExtraBold_MSFontService,sans-serif" font-weight="800" font-size="16" transform="translate(276.3 523)">D</text><text font-family="NanumSquare ExtraBold,NanumSquare ExtraBold_MSFontService,sans-serif" font-weight="800" font-size="16" transform="translate(1029.29 306)">E</text><text font-family="NanumSquare ExtraBold,NanumSquare ExtraBold_MSFontService,sans-serif" font-weight="800" font-size="16" transform="translate(144.702 312)">D</text><text font-family="NanumSquare ExtraBold,NanumSquare ExtraBold_MSFontService,sans-serif" font-weight="800" font-size="16" transform="translate(519.181 77)">A</text><text font-family="NanumSquare ExtraBold,NanumSquare ExtraBold_MSFontService,sans-serif" font-weight="800" font-size="16" transform="translate(651.311 153)">B</text><text font-family="NanumSquare ExtraBold,NanumSquare ExtraBold_MSFontService,sans-serif" font-weight="800" font-size="16" transform="translate(723.053 54)">C</text></g></svg>